<?xml version="1.0" encoding="utf-8"?>
<!-- Generator: Adobe Illustrator 24.1.1, SVG Export Plug-In . SVG Version: 6.00 Build 0)  -->
<svg version="1.1" id="Layer_1" xmlns="http://www.w3.org/2000/svg" xmlns:xlink="http://www.w3.org/1999/xlink" x="0px" y="0px"
	 viewBox="0 0 600 400" style="enable-background:new 0 0 600 400;" xml:space="preserve">
<style type="text/css">
	.st0{fill:#050700;}
	.st1{display:none;fill:#FFFC4A;}
	.st2{fill:#A4D626;}
	.st3{fill:none;}
	.st4{display:none;fill:#F0FF2A;enable-background:new    ;}
	.st5{font-family:'ArialMT';}
	.st6{font-size:72px;}
	.st7{display:none;}
	.st8{display:inline;fill:none;}
	.st9{display:inline;fill:#A4D626;}
	.st10{font-family:'GardensC';}
	.st11{font-size:82px;}
	.st12{letter-spacing:3;}
</style>
<g id="Layer_4">
	<rect x="-30" y="-26" class="st0" width="674" height="464"/>
</g>
<g id="Layer_1_1_">
	<path class="st1" d="M193.7,222.8v67.2h-14.4v-3.8c0-33.1,0.1-66.2-0.1-99.3c-0.1-3,1.2-5.9,3.6-7.9c10.5-9.9,22.6-16.8,37.4-18.3
		c14-1.4,27.1,2.4,39.1,9.1c12,6.8,21.8,16,28.6,27.8c0.7,1.3,1.1,3.6,0.4,4.7c-9.5,17-22.9,29.7-43.3,34.1
		c-18.2,4-34.4,0.2-48.5-11.4C195.8,224.6,195.1,224.1,193.7,222.8z M252.5,177.1c-6.4-2-11.6-3.7-16.9-5c-1.4-0.2-2.9,0.2-4,1.1
		c-7.4,6.8-14.6,13.7-21.8,20.6c-0.9,1.1-1.7,2.1-2.4,3.3c4.8,0,8.7-0.5,12.5,0.1c8.3,1.1,14.4-1.6,19.6-7.8
		C243,185.2,247.4,181.8,252.5,177.1z M237.8,227.1c-0.3-0.6-0.6-1.2-1-1.7c-7.8-7.4-15.6-14.8-23.4-22.1c-0.8-0.8-1.9-1.3-3-1.4
		c-5.4-0.2-10.8-0.1-16.2-0.1c-0.9,3.4-0.6,6.2,2.2,8.5c3.2,2.8,6.1,5.9,9.5,8.6C214.9,225.9,225.5,228.7,237.8,227.1z M220.8,201.7
		c0.2,0.8,0.1,1.2,0.2,1.4c7.5,7.3,15.1,14.5,22.7,21.8c0.5,0.5,1.5,1,2,0.8c4.8-1.5,9.6-3.2,13.7-6.9c-5.8-5.6-11.4-10.8-17-16
		c-0.6-0.6-1.5-0.9-2.4-1C233.8,201.7,227.5,201.7,220.8,201.7z M193.6,196.5c3.8,1.1,6.1,0,8.3-2.2c6.9-6.8,14.1-13.4,21.1-20
		c1-0.9,1.8-2,3.4-3.7c-12.2-0.2-22.5,2.1-31.8,8c-0.6,0.5-1,1.1-1,1.8C193.6,185.7,193.6,191.1,193.6,196.5L193.6,196.5z
		 M250.8,201.8l-0.7,0.9c4.2,4,8.5,8.1,12.9,12c0.6,0.4,1.4,0.4,2.1,0c4.2-3.7,8.1-7.7,11-12.9H250.8z M257.3,181.2l-16.1,15.4
		c8.9,1.5,11.9,0.8,17.3-4.3C265.5,185.6,265.5,185.3,257.3,181.2L257.3,181.2z M262.2,197.3H275l-6.9-7.5L262.2,197.3z"/>
	<path class="st2" d="M191.3,224.4v67.2h-14.4v-3.8c0-33.1,0.1-66.2-0.1-99.3c-0.1-3,1.2-5.9,3.6-7.9c10.5-9.9,22.6-16.8,37.4-18.3
		c14-1.4,27.1,2.4,39.1,9.1c12,6.8,21.8,16,28.6,27.8c0.7,1.3,1.1,3.6,0.4,4.7c-9.5,17-22.9,29.7-43.3,34.1
		c-18.2,4-34.4,0.2-48.5-11.4C193.4,226.1,192.7,225.6,191.3,224.4z M250.1,178.6c-6.4-2-11.6-3.7-16.9-5c-1.4-0.2-2.9,0.2-4,1.1
		c-7.4,6.8-14.6,13.7-21.8,20.6c-0.9,1.1-1.7,2.1-2.4,3.3c4.8,0,8.7-0.5,12.5,0.1c8.3,1.1,14.4-1.6,19.6-7.8
		C240.6,186.7,245,183.3,250.1,178.6z M235.4,228.6c-0.3-0.6-0.6-1.2-1-1.7c-7.8-7.4-15.6-14.8-23.4-22.1c-0.8-0.8-1.9-1.3-3-1.4
		c-5.4-0.2-10.8-0.1-16.2-0.1c-0.9,3.4-0.6,6.2,2.2,8.5c3.2,2.8,6.1,5.9,9.5,8.6C212.5,227.4,223.1,230.2,235.4,228.6z M218.4,203.2
		c0.2,0.8,0.1,1.2,0.2,1.4c7.5,7.3,15.1,14.5,22.7,21.8c0.5,0.5,1.5,1,2,0.8c4.8-1.5,9.6-3.2,13.7-6.9c-5.8-5.6-11.4-10.8-17-16
		c-0.6-0.6-1.5-0.9-2.4-1C231.4,203.2,225.1,203.2,218.4,203.2z M191.2,198c3.8,1.1,6.1,0,8.3-2.2c6.9-6.8,14.1-13.4,21.1-20
		c1-0.9,1.8-2,3.4-3.7c-12.2-0.2-22.5,2.1-31.8,8c-0.6,0.5-1,1.1-1,1.8C191.2,187.2,191.2,192.6,191.2,198L191.2,198z M248.4,203.3
		l-0.7,0.9c4.2,4,8.5,8.1,12.9,12c0.6,0.4,1.4,0.4,2.1,0c4.2-3.7,8.1-7.7,11-12.9H248.4z M254.9,182.7l-16.1,15.4
		c8.9,1.5,11.9,0.8,17.3-4.3C263.1,187.1,263.1,186.8,254.9,182.7L254.9,182.7z M259.8,198.8h12.8l-6.9-7.5L259.8,198.8z"/>
</g>
<g id="Layer_2_copy">
	<rect x="302" y="199" class="st3" width="280" height="68"/>
	<text transform="matrix(1 0 0 1 302 250.1491)" class="st4 st5 st6">ortager</text>
</g>
<g id="Layer_2" class="st7">
	<rect x="203.6" y="232.5" class="st8" width="360.4" height="69"/>
	<text transform="matrix(1 0 0 1 203.6253 292.3594)" class="st9 st10 st11 st12">ortager</text>
</g>
</svg>
