<svg id="Layer_1" data-name="Layer 1" xmlns="http://www.w3.org/2000/svg" viewBox="0 0 387.21 144.95"><defs><style>.cls-1,.cls-2{fill:#a4d626;}.cls-2{font-size:82px;font-family:GardensC;letter-spacing:0.04em;}.cls-3{letter-spacing:0em;}.cls-4{letter-spacing:0.04em;}</style></defs><g id="Layer_1-2" data-name="Layer 1"><path class="cls-1" d="M191.27,224.36V291.6h-14.4v-3.8c0-33.09.08-66.17-.08-99.33a9.82,9.82,0,0,1,3.6-7.91c10.48-9.89,22.64-16.81,37.44-18.33,14-1.45,27.12,2.35,39.12,9.12a74.2,74.2,0,0,1,28.56,27.84c.72,1.29,1.12,3.57.4,4.72-9.52,17-22.88,29.66-43.28,34.15-18.16,4-34.4.22-48.48-11.41C193.43,226.11,192.71,225.58,191.27,224.36Zm58.8-45.78c-6.4-2-11.6-3.65-16.88-5a5.09,5.09,0,0,0-4,1.14c-7.36,6.77-14.56,13.69-21.76,20.61a32.21,32.21,0,0,0-2.4,3.27c4.8,0,8.72-.45,12.48.08,8.32,1.14,14.4-1.6,19.6-7.76C240.63,186.72,245,183.29,250.07,178.58Zm-14.72,50a13.91,13.91,0,0,0-1-1.75c-7.76-7.37-15.6-14.75-23.44-22.13a5.61,5.61,0,0,0-3-1.44c-5.44-.16-10.8-.08-16.24-.08-.88,3.42-.56,6.16,2.16,8.52,3.2,2.81,6.08,5.93,9.52,8.59C212.47,227.41,223.11,230.22,235.35,228.62Zm-17-25.4c.16.84.08,1.22.24,1.37,7.52,7.3,15.12,14.53,22.72,21.75a2.88,2.88,0,0,0,2,.84c4.8-1.52,9.6-3.2,13.68-6.92-5.84-5.55-11.36-10.8-17-16a3.91,3.91,0,0,0-2.4-1C231.43,203.22,225.11,203.22,218.39,203.22ZM191.19,198c3.76,1.14,6.08,0,8.32-2.2,6.88-6.77,14.08-13.39,21.12-20,1-.91,1.76-2,3.36-3.65-12.24-.15-22.48,2.13-31.76,8a2.7,2.7,0,0,0-1,1.82V198Zm57.2,5.33-.72.91c4.24,4,8.48,8.06,12.88,12a2,2,0,0,0,2.08,0c4.16-3.73,8.08-7.69,11-12.93Zm6.48-20.61-16.08,15.44c8.88,1.52,11.92.76,17.28-4.34,7-6.69,7-7-1.2-11.1Zm5,16.12h12.8l-6.88-7.45Z" transform="translate(-176.79 -161.92)"/></g><g id="Layer_2" data-name="Layer 2"><text class="cls-2" transform="translate(26.83 130.44)">or<tspan class="cls-3" x="72.16" y="0">t</tspan><tspan class="cls-4" x="97.33" y="0">ager</tspan></text></g></svg>